# Blender v2.77 (sub 0) OBJ File: ''
# www.blender.org
o model459.002
v 1.099600 14.064200 -1.345898
v 0.686200 13.835900 -1.374598
v 1.012900 13.531100 0.095402
v 1.112900 13.671300 0.247802
v -0.487300 13.512200 0.134402
v -0.582700 13.650000 0.291902
v 1.317700 13.837300 0.072202
v 1.470800 14.039700 -0.116698
v 1.442100 14.204300 0.155502
v 1.543900 14.803200 0.099202
v -1.049200 14.770500 0.166602
v -1.022000 14.440900 0.098002
v -0.929600 14.174500 0.217202
v -0.800500 13.810700 0.127302
v -0.968200 14.009000 -0.053298
v 1.521400 14.472900 0.031802
v 0.408500 13.246800 0.186002
v 0.673500 13.309200 0.032202
v 0.269000 13.234600 0.214702
v 0.127900 13.243300 0.193302
v -0.146200 13.298900 0.053502
v -1.187900 14.896900 -0.387598
v -1.086100 14.352500 -0.238098
v -0.730800 13.671400 -0.064098
v -0.918800 13.858100 -0.301998
v -1.070100 14.192800 -0.580298
v -1.444300 14.749900 -1.060998
v -1.231500 14.695800 -0.708198
v -1.457500 14.296000 -1.242498
v -1.081700 14.241900 -1.133198
v -1.088300 13.920200 -1.048298
v -0.755100 13.966700 -0.972198
v -0.904300 13.843300 -0.757198
v -0.492700 13.808300 -1.025598
v -1.000100 14.316900 -1.188698
v -0.662200 14.042000 -1.300098
v -0.245200 13.824100 -1.350398
v -0.325200 13.576500 -0.806098
v -0.069400 13.611100 -1.142698
v 0.220000 13.743500 -1.423798
v 0.225600 13.592200 -1.279898
v 0.526800 13.618600 -1.158098
v 0.950600 13.826400 -1.063098
v 0.800600 13.590700 -0.835398
v 1.620800 14.648100 -1.155498
v 1.682300 14.732500 -0.783898
v 1.875100 14.791700 -1.147198
v 1.522100 14.274700 -1.200898
v 1.890200 14.338200 -1.329498
v 1.211300 13.991500 -1.023298
v 1.541200 13.953300 -1.116598
v 1.374600 13.872000 -0.816398
v 1.435900 14.347600 -1.251998
v 1.540400 14.225600 -0.648198
v 1.650400 14.932700 -0.461398
v 1.570200 14.386000 -0.307198
v -0.740300 13.657200 -0.548698
v -0.210300 13.466500 -0.565498
v -0.548900 13.505000 -0.297998
v -0.346600 13.362100 -0.100198
v 0.044800 13.368900 -0.438598
v 0.251500 13.331900 -0.411098
v 0.455500 13.374100 -0.449298
v 0.864000 13.377300 -0.131698
v 0.701100 13.478000 -0.589198
v 1.241600 13.696200 -0.115398
v 1.052100 13.525200 -0.339598
v 1.226400 13.681900 -0.599798
v 1.412300 13.887400 -0.362598
v 0.240100 13.404555 -0.767588
vt 0.370500 0.432500
vt 0.592900 0.496000
vt 0.525300 0.290700
vt 0.373700 0.329200
vt 0.169800 0.838100
vt 0.148700 0.856700
vt 0.171800 0.878700
vt 0.197600 0.860000
vt 0.196800 0.905800
vt 0.230500 0.885500
vt 0.222200 0.952200
vt 0.266600 0.920100
vt 0.062500 0.723000
vt 0.077800 0.797400
vt 0.085400 0.723000
vt 0.078100 0.691100
vt 0.172400 0.680300
vt 0.098600 0.798500
vt 0.164900 0.734600
vt 0.210400 0.683400
vt 0.196000 0.626600
vt 0.235400 0.634000
vt 0.298000 0.669900
vt 0.298000 0.627300
vt 0.210000 0.683400
vt 0.234900 0.634000
vt 0.172000 0.680300
vt 0.195600 0.626600
vt 0.071300 0.875000
vt 0.046900 0.890600
vt 0.015600 0.875000
vt 0.077800 0.797400
vt 0.031300 0.797400
vt 0.085400 0.723000
vt 0.062500 0.723000
vt 0.078100 0.691100
vt 0.098200 0.798500
vt 0.164500 0.734600
vt 0.756800 0.064200
vt 0.889500 0.099700
vt 0.980500 0.268800
vt 0.678900 0.220100
vt 0.898300 0.470000
vt 0.737600 0.444400
vt 0.592900 0.496000
vt 0.525300 0.290700
vt 0.370500 0.432500
vt 0.373700 0.329200
vt 0.737600 0.444400
vt 0.678900 0.220100
vt 0.898300 0.470000
vt 0.980500 0.268800
vt 0.351300 0.331000
vt 0.351300 0.268500
vt 0.226300 0.268500
vt 0.273200 0.377800
vt 0.116900 0.268500
vt 0.195000 0.377800
vt 0.116900 0.377800
vt 0.195000 0.471600
vt 0.116900 0.471600
vt 0.273200 0.471600
vt 0.351300 0.471600
vt 0.020000 0.377800
vt 0.054400 0.268500
vt 0.023200 0.252800
vt 0.004400 0.375000
vt 0.054400 0.268500
vt 0.020000 0.377800
vt 0.054400 0.377800
vt 0.116900 0.377800
vt 0.116900 0.268500
vt 0.195000 0.471600
vt 0.116900 0.471600
vt 0.195000 0.377800
vt 0.273200 0.377800
vt 0.226300 0.268500
vt 0.351300 0.331000
vt 0.351300 0.268500
vt 0.273200 0.471600
vt 0.351300 0.471600
vt 0.171800 0.878700
vt 0.148700 0.856700
vt 0.169800 0.838100
vt 0.197600 0.860000
vt 0.159900 0.927900
vt 0.176300 0.963900
vt 0.756800 0.064200
vt 0.889500 0.099700
vt 0.196800 0.905800
vt 0.230500 0.885500
vt 0.222200 0.952200
vt 0.176300 0.963900
vt 0.159900 0.927900
vt 0.266600 0.920100
vt 0.054400 0.377800
vt 0.054400 0.268500
vt 0.116900 0.268500
vt 0.023200 0.252800
vt 0.196000 0.626600
vt 0.234900 0.634000
vt 0.235400 0.634000
vt 0.298000 0.627300
vt 0.226300 0.268500
vn -0.968600 -0.123300 0.215700
vn -0.969500 -0.123100 0.211800
vn -0.961200 -0.222300 0.163200
vn -0.958700 -0.170500 0.227700
vn -0.643100 -0.745300 0.176200
vn -0.677400 -0.705800 0.207200
vn -0.748800 -0.637700 0.181000
vn -0.707100 -0.696100 0.124200
vn -0.917900 -0.371300 0.140100
vn -0.841000 -0.540900 0.015100
vn -0.897200 -0.386000 0.214800
vn -0.433700 -0.849500 -0.300500
vn 0.049600 -0.459800 -0.886600
vn -0.328400 -0.730200 -0.599100
vn -0.619600 -0.779100 -0.095600
vn -0.472500 -0.758800 -0.448300
vn -0.308000 -0.646800 -0.697700
vn -0.566600 -0.743300 -0.355600
vn -0.398200 -0.786300 -0.472400
vn -0.358600 -0.864000 -0.353400
vn -0.310800 -0.842400 -0.440200
vn -0.044900 -0.714200 -0.698500
vn -0.034000 -0.824500 -0.564800
vn 0.408200 -0.771200 -0.488500
vn 0.327800 -0.840200 -0.431900
vn 0.460400 -0.750700 -0.473800
vn 0.360400 -0.853500 -0.376300
vn -0.179800 0.451400 -0.874000
vn 0.932100 0.000400 0.362200
vn 0.586600 0.753300 -0.297300
vn 0.061100 -0.197500 -0.978400
vn 0.688700 -0.155000 -0.708300
vn 0.304700 -0.749200 -0.588200
vn 0.326600 -0.801700 -0.500600
vn 0.619300 -0.759000 -0.201100
vn 0.442500 -0.101300 -0.891000
vn 0.506900 -0.748600 -0.427500
vn 0.929500 -0.325600 0.173400
vn 0.978600 -0.146500 0.144200
vn 0.979200 -0.184100 0.085100
vn 0.981300 -0.098900 0.165000
vn 0.973200 -0.146200 0.177600
vn -0.923600 -0.167500 0.344900
vn -0.860300 -0.160400 0.483900
vn -0.841600 -0.312800 0.440300
vn -0.598400 -0.784200 -0.164400
vn -0.277900 -0.919700 -0.277500
vn -0.517300 -0.847800 -0.117300
vn -0.375200 -0.917000 -0.135200
vn -0.074400 -0.983600 -0.164600
vn -0.183400 -0.958700 -0.217400
vn 0.013300 -0.983500 -0.180700
vn 0.017900 -0.985400 -0.169200
vn 0.193000 -0.955300 -0.223800
vn 0.071600 -0.979000 -0.190900
vn 0.141200 -0.970600 -0.194800
vn 0.390600 -0.907400 -0.155200
vn 0.285700 -0.912600 -0.292500
vn 0.729100 -0.676800 0.101800
vn 0.669900 -0.728700 0.142000
vn 0.520100 -0.842000 -0.143400
vn 0.574600 -0.792100 -0.205900
vn 0.860400 -0.509300 0.017700
vn 0.772900 -0.618700 0.141100
vn 0.704700 -0.688600 0.171000
vn -0.947600 -0.204100 0.245900
vn 0.933000 -0.347900 0.091900
vn 0.963900 -0.179800 0.196300
vn -0.126700 -0.974000 -0.187700
vn 0.003900 -0.958100 -0.286500
s 1
f 11/1/1 22/2/2 23/3/3
f 11/1/1 23/3/3 12/4/4
f 5/5/5 6/6/6 14/7/7
f 5/5/5 14/7/7 24/8/8
f 24/8/8 14/7/7 15/9/9
f 24/8/8 15/9/9 25/10/10
f 25/10/10 15/9/9 23/11/3
f 25/10/10 23/11/3 26/12/11
f 31/13/12 30/14/13 32/15/14
f 31/13/12 32/15/14 33/16/15
f 33/16/15 32/15/14 34/17/16
f 30/14/13 35/18/17 32/15/14
f 32/15/14 35/18/17 36/19/18
f 32/15/14 36/19/18 34/17/16
f 34/17/16 36/19/18 37/20/19
f 34/17/16 37/20/19 38/21/20
f 38/21/20 37/20/19 39/22/21
f 39/22/21 37/20/19 40/23/22
f 39/22/21 40/23/22 41/24/23
f 41/24/23 40/23/22 2/25/24
f 41/24/23 2/25/24 42/26/25
f 42/26/25 2/25/24 43/27/26
f 42/26/25 43/27/26 44/28/27
f 45/29/28 46/30/29 47/31/30
f 45/29/28 47/31/30 48/32/31
f 48/32/31 47/31/30 49/33/32
f 48/32/31 49/33/32 50/34/33
f 50/34/33 49/33/32 51/35/34
f 50/34/33 51/35/34 52/36/35
f 53/37/36 45/29/28 48/32/31
f 53/37/36 48/32/31 1/38/37
f 1/38/37 48/32/31 50/34/33
f 1/38/37 50/34/33 43/27/26
f 43/27/26 50/34/33 52/36/35
f 52/39/35 51/40/34 49/41/32
f 52/39/35 49/41/32 54/42/38
f 54/42/38 49/41/32 47/43/30
f 54/42/38 47/43/30 46/44/29
f 54/42/38 46/44/29 55/45/39
f 54/42/38 55/45/39 56/46/40
f 56/46/40 55/45/39 10/47/41
f 56/46/40 10/47/41 16/48/42
f 23/3/3 22/2/2 28/49/43
f 23/3/3 28/49/43 26/50/11
f 26/50/11 28/49/43 27/51/44
f 26/50/11 27/51/44 29/52/45
f 33/53/15 34/54/16 38/55/20
f 33/53/15 38/55/20 57/56/46
f 57/56/46 38/55/20 58/57/47
f 57/56/46 58/57/47 59/58/48
f 59/58/48 58/57/47 60/59/49
f 59/58/48 60/59/49 24/60/8
f 24/60/8 60/59/49 5/61/5
f 59/58/48 24/60/8 25/62/10
f 59/58/48 25/62/10 57/56/46
f 57/56/46 25/62/10 26/63/11
f 57/56/46 26/63/11 33/53/15
f 20/64/50 61/65/51 62/66/52
f 20/64/50 62/66/52 19/67/53
f 19/67/53 62/66/52 63/68/54
f 19/67/53 63/68/54 17/69/55
f 17/69/55 63/68/54 18/70/56
f 64/71/57 18/70/56 63/68/54
f 64/71/57 63/68/54 65/72/58
f 66/73/59 3/74/60 64/71/57
f 66/73/59 64/71/57 67/75/61
f 67/75/61 64/71/57 65/72/58
f 67/75/61 65/72/58 68/76/62
f 68/76/62 65/72/58 44/77/27
f 68/76/62 44/77/27 52/78/35
f 52/78/35 44/77/27 43/79/26
f 66/73/59 67/75/61 68/76/62
f 66/73/59 68/76/62 69/80/63
f 69/80/63 68/76/62 52/78/35
f 69/80/63 52/78/35 54/81/38
f 7/82/64 4/83/65 3/84/60
f 3/84/60 66/85/59 7/82/64
f 13/86/66 12/87/4 23/11/3
f 23/11/3 15/9/9 13/86/66
f 1/38/37 43/27/26 2/25/24
f 33/88/15 26/50/11 29/52/45
f 29/52/45 31/89/12 33/88/15
f 8/90/67 7/82/64 66/85/59
f 66/85/59 69/91/63 8/90/67
f 56/92/40 16/93/42 9/94/68
f 9/94/68 8/90/67 56/92/40
f 69/91/63 54/95/38 56/92/40
f 56/92/40 8/90/67 69/91/63
f 60/59/49 58/57/47 61/65/51
f 61/65/51 21/96/69 60/59/49
f 21/96/69 61/65/51 20/64/50
f 63/68/54 62/66/52 70/97/70
f 58/57/47 38/55/20 70/98/70
f 62/66/52 61/65/51 70/99/70
f 38/21/20 39/22/21 70/100/70
f 42/26/25 44/28/27 70/101/70
f 39/22/21 41/24/23 70/102/70
f 41/24/23 42/26/25 70/103/70
f 44/77/27 65/72/58 70/104/70
f 65/72/58 63/68/54 70/98/70
f 61/65/51 58/57/47 70/97/70
