# Blender v2.77 (sub 0) OBJ File: ''
# www.blender.org
o model459.012
v 8.206200 12.205800 -1.124098
v 8.263500 12.312500 -1.028898
v 7.913600 12.263500 -0.864498
v 7.892000 12.106400 -1.026498
v 7.388100 12.358900 -0.744998
v 7.739000 12.059400 -0.972698
v 7.112300 12.467900 -0.705298
v 7.121800 12.143600 -0.899998
v 7.016100 12.103100 -0.639298
v 6.665300 12.050900 -0.884898
v 6.533700 12.156400 -0.672098
v 6.340000 12.176400 -0.886298
v 6.566500 12.398000 -0.569598
v 6.370700 12.499100 -0.759098
v 7.689600 12.115700 -1.545898
v 8.179000 12.198600 -1.684198
v 7.456900 12.130700 -2.041698
v 7.762500 12.150400 -2.065298
v 7.402200 12.240800 -2.157798
v 7.819300 12.231100 -2.136898
v 6.235500 12.521900 -0.912698
v 6.222700 12.226100 -0.975098
v 6.085100 12.212400 -1.381298
v 6.285800 12.159100 -1.380398
v 5.953200 12.365100 -1.680398
v 6.277300 12.240100 -1.770398
v 5.933500 12.494000 -1.720698
v 6.293300 12.378300 -1.875498
v 7.214300 12.253200 -2.135498
v 7.338800 12.143900 -1.992798
v 7.506800 12.087600 -1.493298
v 7.095800 12.177500 -1.441598
v 6.640300 12.105200 -1.421898
v 7.021300 12.176600 -1.961998
v 6.584700 12.139500 -1.871098
v 7.030800 12.263400 -2.092898
v 6.605700 12.316800 -2.000798
v 6.724800 12.168700 -0.350898
v 6.699300 11.962000 -0.493298
v 7.023900 11.726700 -0.302298
v 7.177800 11.774700 -0.368398
v 7.075200 11.801800 -0.183298
v 8.236500 12.299200 -1.694898
v 8.200300 12.396800 -1.665298
v 8.169100 12.413800 -1.082498
v 7.741500 12.429600 -1.520698
v 7.835600 12.419400 -0.980798
v 7.444400 12.441400 -1.494098
v 7.427700 12.472500 -0.909798
v 7.154200 12.596700 -1.516398
v 7.180900 12.628500 -0.961498
v 6.696400 12.724400 -1.490098
v 6.738800 12.746600 -0.959998
v 6.365400 12.734400 -1.495798
v 6.398900 12.762500 -1.000998
v 6.008300 12.795400 -1.502198
v 6.158200 12.809500 -1.091498
v 6.768500 12.518000 -0.684798
v 6.974400 12.270600 -0.456698
v 7.181600 11.880500 -0.258998
v 7.795800 12.335700 -2.080598
v 7.460600 12.387700 -2.037498
v 7.303100 12.427000 -2.007598
v 7.065000 12.464600 -1.998898
v 6.643400 12.522400 -1.896498
v 6.322400 12.535900 -1.787498
v 5.945100 12.598600 -1.679798
v 6.066242 12.517515 -1.017631
v 6.056392 12.289894 -1.065649
v 5.950508 12.279352 -1.378224
v 5.849009 12.396856 -1.608384
v 5.833850 12.496046 -1.639396
v 5.891409 12.727976 -1.471258
v 6.006759 12.738826 -1.155220
v 5.842776 12.576537 -1.607923
v 5.916427 12.509151 -1.217766
v 5.912204 12.411565 -1.238352
v 5.866809 12.407045 -1.372361
v 5.823294 12.457422 -1.471036
v 5.816795 12.499948 -1.484331
v 5.841472 12.599381 -1.412246
v 5.890925 12.604033 -1.276753
v 5.820621 12.534456 -1.470838
v 5.828697 12.502874 -1.367960
vt 0.620000 0.057400
vt 0.616200 0.043800
vt 0.589700 0.043100
vt 0.597500 0.058000
vt 0.572700 0.041300
vt 0.571500 0.058100
vt 0.554700 0.040900
vt 0.552500 0.060600
vt 0.546900 0.042700
vt 0.527600 0.060400
vt 0.526700 0.041800
vt 0.513300 0.060600
vt 0.520300 0.041700
vt 0.509900 0.047600
vt 0.596800 0.087300
vt 0.620000 0.087300
vt 0.588700 0.119200
vt 0.607900 0.118700
vt 0.572000 0.139400
vt 0.596900 0.144500
vt 0.502100 0.052500
vt 0.502400 0.060500
vt 0.502400 0.098200
vt 0.510200 0.092900
vt 0.502200 0.108400
vt 0.510100 0.111500
vt 0.502100 0.111800
vt 0.510000 0.115500
vt 0.555000 0.127400
vt 0.563000 0.120600
vt 0.568600 0.089500
vt 0.552700 0.092000
vt 0.527600 0.093300
vt 0.550100 0.119000
vt 0.527400 0.115500
vt 0.550600 0.126600
vt 0.527300 0.120600
vt 0.526600 0.034800
vt 0.531000 0.037000
vt 0.555100 0.008300
vt 0.563100 0.011900
vt 0.552200 0.007000
vt 0.595300 0.185500
vt 0.605900 0.185500
vt 0.605900 0.185500
vt 0.600600 0.121500
vt 0.613100 0.185500
vt 0.610900 0.129400
vt 0.646600 0.185500
vt 0.646600 0.123800
vt 0.682700 0.185500
vt 0.682700 0.123900
vt 0.695400 0.185500
vt 0.695400 0.129600
vt 0.719600 0.185500
vt 0.719600 0.129600
vt 0.737200 0.185500
vt 0.737200 0.129600
vt 0.746600 0.185500
vt 0.746600 0.129300
vt 0.646600 0.121500
vt 0.674700 0.121500
vt 0.690600 0.107400
vt 0.714300 0.107400
vt 0.735000 0.107400
vt 0.746600 0.107400
vt 0.732000 0.100400
vt 0.714300 0.091300
vt 0.728400 0.090900
vt 0.714300 0.045600
vt 0.728400 0.045600
vt 0.701800 0.045600
vt 0.701800 0.087800
vt 0.595300 0.185500
vt 0.596500 0.242500
vt 0.609300 0.246400
vt 0.615800 0.245100
vt 0.646600 0.245300
vt 0.682700 0.245300
vt 0.695400 0.244700
vt 0.719600 0.244700
vt 0.737200 0.244700
vt 0.746600 0.244700
vt 0.646600 0.247900
vt 0.682700 0.247900
vt 0.695400 0.247900
vt 0.719600 0.247900
vt 0.737200 0.247900
vt 0.746600 0.247900
vt 0.571500 0.058100
vt 0.597500 0.058000
vt 0.596800 0.087300
vt 0.568600 0.089500
vt 0.502100 0.052500
vt 0.502400 0.060500
vt 0.502200 0.108400
vt 0.502100 0.111800
vt 0.746600 0.129300
vt 0.746600 0.107400
vt 0.502400 0.098200
vt 0.746600 0.185500
vt 0.746600 0.247900
vt 0.746600 0.244700
vt 0.502400 0.098200
vt 0.502200 0.108400
vt 0.502100 0.052500
vt 0.502400 0.060500
vt 0.746600 0.185500
vt 0.746600 0.129300
vt 0.502100 0.111800
vt 0.746600 0.244700
vt 0.746600 0.247900
vt 0.746600 0.107400
vt 0.746600 0.244700
vt 0.746600 0.107400
vt 0.502200 0.108400
vt 0.502400 0.060500
vt 0.746600 0.129300
vt 0.502400 0.098200
vt 0.502100 0.111800
vt 0.746600 0.185500
vn 0.593300 -0.784100 0.182300
vn 0.823900 0.046300 0.564800
vn 0.301300 -0.095700 0.948700
vn 0.301000 -0.894300 0.331100
vn 0.131400 -0.014100 0.991200
vn 0.236600 -0.829800 0.505400
vn 0.443000 0.454600 0.772700
vn 0.251200 -0.920300 0.300000
vn 0.757900 -0.625900 -0.184000
vn -0.111900 -0.990300 0.082000
vn -0.658000 -0.630200 0.412100
vn -0.575500 -0.701400 0.420500
vn -0.479200 0.421100 0.770100
vn -0.546400 0.301700 0.781300
vn 0.138500 -0.987000 -0.081600
vn 0.582900 -0.779100 -0.230800
vn -0.061600 -0.932800 -0.355100
vn 0.176400 -0.902900 -0.392100
vn -0.068800 -0.081700 -0.994300
vn 0.417200 -0.148200 -0.896700
vn -0.741800 0.083700 0.665400
vn -0.638200 -0.624900 0.449700
vn -0.265400 -0.944400 -0.194300
vn -0.243300 -0.968100 -0.060300
vn -0.399200 -0.615700 -0.679400
vn -0.431300 -0.754300 -0.494900
vn -0.307300 0.094600 -0.946900
vn -0.393100 -0.024500 -0.919100
vn -0.189100 -0.138100 -0.972200
vn -0.166700 -0.960700 -0.222100
vn -0.036700 -0.996700 -0.072500
vn -0.022900 -0.998700 -0.046000
vn -0.026100 -0.998200 -0.054000
vn -0.049200 -0.949900 -0.308800
vn -0.219500 -0.858400 -0.463600
vn -0.158500 -0.217300 -0.963200
vn -0.298000 -0.048200 -0.953400
vn -0.453900 0.220600 0.863300
vn -0.636900 -0.766300 -0.084500
vn -0.245700 -0.967800 0.054100
vn 0.714300 -0.613000 -0.337700
vn 0.085000 -0.328800 0.940600
vn 0.917500 -0.023100 -0.397100
vn 0.582200 0.769300 -0.263100
vn 0.376100 0.872800 0.311100
vn 0.048100 0.998000 -0.041400
vn 0.160800 0.896300 0.413200
vn 0.232200 0.969800 -0.074400
vn 0.335200 0.877700 0.342400
vn 0.351800 0.912900 -0.207100
vn 0.376900 0.895000 0.238700
vn 0.122400 0.955900 -0.266900
vn 0.114400 0.944000 0.309300
vn 0.073800 0.933600 -0.350600
vn -0.017800 0.923100 0.384300
vn 0.161300 0.844500 -0.510700
vn 0.066600 0.982300 0.175300
vn 0.023600 0.744400 0.667300
vn 0.535200 0.544200 0.646000
vn 0.841600 0.199700 0.501900
vn 0.266000 0.732800 -0.626300
vn 0.073600 0.847800 -0.525200
vn 0.077100 0.865500 -0.494900
vn 0.058200 0.766700 -0.639400
vn -0.091400 0.740200 -0.666100
vn -0.139200 0.695000 -0.705400
vn -0.064700 0.591300 -0.803900
vn -0.554300 -0.483200 0.677700
vn -0.526900 0.073800 0.846700
vn -0.525100 0.124900 0.841800
vn -0.539700 -0.653500 0.530800
vn -0.632100 0.003000 -0.774900
vn -0.555800 -0.650800 -0.517200
vn -0.562800 -0.628200 -0.537200
vn -0.631600 0.026900 -0.774800
vn -0.531100 0.587100 0.610900
vn -0.525100 0.728400 0.440100
vn -0.444900 -0.895300 0.022100
vn -0.445300 -0.891200 -0.086700
vn -0.523400 0.838900 -0.149200
vn -0.533700 0.801800 -0.268900
vn -0.565000 0.511600 -0.647300
vn -0.564600 0.513400 -0.646200
vn -0.939100 -0.342800 -0.024600
vn -0.812700 -0.542500 0.212500
vn -0.820700 -0.545700 0.169100
vn -0.918900 -0.394500 0.001900
vn -0.822500 -0.248200 0.511800
vn -0.800700 0.013800 0.598800
vn -0.800700 0.040400 0.597700
vn -0.825300 -0.357900 0.436800
vn -0.826800 0.261400 0.498100
vn -0.899600 0.413600 0.140000
vn -0.907300 0.404700 0.114200
vn -0.839800 0.340500 0.422800
vn -0.993800 -0.023100 -0.108700
vn -0.994000 -0.009200 -0.109100
vn -0.968500 0.234300 -0.084600
vn -0.962300 0.261300 -0.075300
vn -0.986200 0.119800 0.114200
vn -0.994300 -0.028300 0.102400
vn -0.953400 -0.050700 0.297400
vn -0.863400 -0.005100 0.504500
vn -0.884900 0.145400 0.442500
vn -0.965000 -0.217500 0.146500
vn -0.890100 -0.366400 0.271000
vn -0.878500 -0.169300 0.446700
vn -0.944200 0.232200 0.233600
s 1
f 1/1/1 2/2/2 3/3/3
f 1/1/1 3/3/3 4/4/4
f 4/4/4 3/3/3 5/5/5
f 4/4/4 5/5/5 6/6/6
f 6/6/6 5/5/5 7/7/7
f 6/6/6 7/7/7 8/8/8
f 8/8/8 7/7/7 9/9/9
f 8/8/8 9/9/9 10/10/10
f 10/10/10 9/9/9 11/11/11
f 10/10/10 11/11/11 12/12/12
f 12/12/12 11/11/11 13/13/13
f 12/12/12 13/13/13 14/14/14
f 1/1/1 4/4/4 15/15/15
f 1/1/1 15/15/15 16/16/16
f 16/16/16 15/15/15 17/17/17
f 16/16/16 17/17/17 18/18/18
f 18/18/18 17/17/17 19/19/19
f 18/18/18 19/19/19 20/20/20
f 14/14/14 21/21/21 22/22/22
f 14/14/14 22/22/22 12/12/12
f 12/12/12 22/22/22 23/23/23
f 12/12/12 23/23/23 24/24/24
f 24/24/24 23/23/23 25/25/25
f 24/24/24 25/25/25 26/26/26
f 26/26/26 25/25/25 27/27/27
f 26/26/26 27/27/27 28/28/28
f 29/29/29 19/19/19 17/17/17
f 29/29/29 17/17/17 30/30/30
f 30/30/30 17/17/17 15/15/15
f 30/30/30 15/15/15 31/31/31
f 31/31/31 6/6/6 8/8/8
f 31/31/31 8/8/8 32/32/32
f 32/32/32 8/8/8 10/10/10
f 32/32/32 10/10/10 33/33/33
f 33/33/33 10/10/10 12/12/12
f 33/33/33 12/12/12 24/24/24
f 30/30/30 31/31/31 32/32/32
f 30/30/30 32/32/32 34/34/34
f 34/34/34 32/32/32 33/33/33
f 34/34/34 33/33/33 35/35/35
f 35/35/35 33/33/33 24/24/24
f 35/35/35 24/24/24 26/26/26
f 29/29/29 30/30/30 34/34/34
f 29/29/29 34/34/34 36/36/36
f 36/36/36 34/34/34 35/35/35
f 36/36/36 35/35/35 37/37/37
f 37/37/37 35/35/35 26/26/26
f 37/37/37 26/26/26 28/28/28
f 38/38/38 13/13/13 11/11/11
f 38/38/38 11/11/11 39/39/39
f 39/39/39 11/11/11 9/9/9
f 39/39/39 9/9/9 40/40/40
f 40/40/40 9/9/9 41/41/41
f 40/40/40 41/41/41 42/42/42
f 1/43/1 16/44/16 43/45/43
f 1/43/1 43/45/43 2/46/2
f 2/46/2 43/45/43 44/47/44
f 2/46/2 44/47/44 45/48/45
f 45/48/45 44/47/44 46/49/46
f 45/48/45 46/49/46 47/50/47
f 47/50/47 46/49/46 48/51/48
f 47/50/47 48/51/48 49/52/49
f 49/52/49 48/51/48 50/53/50
f 49/52/49 50/53/50 51/54/51
f 51/54/51 50/53/50 52/55/52
f 51/54/51 52/55/52 53/56/53
f 53/56/53 52/55/52 54/57/54
f 53/56/53 54/57/54 55/58/55
f 55/58/55 54/57/54 56/59/56
f 55/58/55 56/59/56 57/60/57
f 2/46/2 45/48/45 47/50/47
f 2/46/2 47/50/47 3/61/3
f 3/61/3 47/50/47 49/52/49
f 3/61/3 49/52/49 5/62/5
f 5/62/5 49/52/49 51/54/51
f 5/62/5 51/54/51 7/63/7
f 7/63/7 51/54/51 53/56/53
f 7/63/7 53/56/53 58/64/58
f 58/64/58 53/56/53 55/58/55
f 58/64/58 55/58/55 14/65/14
f 14/65/14 55/58/55 57/60/57
f 14/65/14 57/60/57 21/66/21
f 58/64/58 14/65/14 13/67/13
f 58/64/58 13/67/13 59/68/59
f 59/68/59 13/67/13 38/69/38
f 59/68/59 38/69/38 60/70/60
f 60/70/60 38/69/38 42/71/42
f 60/70/60 42/71/42 41/72/41
f 7/63/7 58/64/58 59/68/59
f 7/63/7 59/68/59 9/73/9
f 9/73/9 59/68/59 60/70/60
f 9/73/9 60/70/60 41/72/41
f 16/74/16 18/75/18 20/76/20
f 16/74/16 20/76/20 43/45/43
f 43/45/43 20/76/20 61/77/61
f 43/45/43 61/77/61 44/47/44
f 44/47/44 61/77/61 62/78/62
f 44/47/44 62/78/62 46/49/46
f 46/49/46 62/78/62 63/79/63
f 46/49/46 63/79/63 48/51/48
f 48/51/48 63/79/63 64/80/64
f 48/51/48 64/80/64 50/53/50
f 50/53/50 64/80/64 65/81/65
f 50/53/50 65/81/65 52/55/52
f 52/55/52 65/81/65 66/82/66
f 52/55/52 66/82/66 54/57/54
f 54/57/54 66/82/66 67/83/67
f 54/57/54 67/83/67 56/59/56
f 61/77/61 20/76/20 19/84/19
f 61/77/61 19/84/19 62/78/62
f 62/78/62 19/84/19 29/85/29
f 62/78/62 29/85/29 63/79/63
f 63/79/63 29/85/29 36/86/36
f 63/79/63 36/86/36 64/80/64
f 64/80/64 36/86/36 37/87/37
f 64/80/64 37/87/37 65/81/65
f 65/81/65 37/87/37 28/88/28
f 65/81/65 28/88/28 66/82/66
f 66/82/66 28/88/28 27/89/27
f 66/82/66 27/89/27 67/83/67
f 31/90/31 15/91/15 4/92/4
f 4/92/4 6/93/6 31/90/31
f 42/42/42 38/38/38 39/39/39
f 39/39/39 40/40/40 42/42/42
f 22/22/68 21/21/69 68/94/70 69/95/71
f 27/27/72 25/25/73 71/96/74 72/97/75
f 21/66/69 57/60/76 74/98/77 68/99/70
f 23/23/78 22/22/68 69/95/71 70/100/79
f 57/60/76 56/59/80 73/101/81 74/98/77
f 67/83/82 27/89/72 72/102/75 75/103/83
f 25/25/73 23/23/78 70/100/79 71/96/74
f 56/59/80 67/83/82 75/103/83 73/101/81
f 71/96/84 70/100/85 78/104/86 79/105/87
f 69/95/88 68/94/89 76/106/90 77/107/91
f 74/98/92 73/101/93 81/108/94 82/109/95
f 70/100/85 69/95/88 77/107/91 78/104/86
f 72/97/96 71/96/84 79/105/87 80/110/97
f 73/101/93 75/103/98 83/111/99 81/108/94
f 75/103/98 72/102/96 80/112/97 83/111/99
f 68/99/89 74/98/92 82/109/95 76/113/90
f 83/111/100 80/112/101 84/114/102
f 76/113/103 82/109/104 84/115/102
f 79/105/105 78/104/106 84/116/102
f 77/107/107 76/106/103 84/117/102
f 82/109/104 81/108/108 84/118/102
f 78/104/106 77/107/107 84/119/102
f 80/110/101 79/105/105 84/120/102
f 81/108/108 83/111/100 84/121/102
