# Blender v2.77 (sub 0) OBJ File: ''
# www.blender.org
o model459.004
v 1.099600 14.064200 -1.345898
v 1.115800 15.635000 0.590103
v 1.510400 15.452200 0.290603
v 1.603800 15.233400 -0.081698
v 1.543900 14.803200 0.099202
v -0.617200 15.613200 0.635103
v -1.022100 15.420300 0.356403
v -1.129200 15.199000 -0.010698
v -1.049200 14.770500 0.166602
v -0.705600 16.178801 0.364803
v -1.072600 15.891500 0.061203
v -1.220800 15.598100 -0.253497
v -1.187900 14.896900 -0.387598
v -1.231500 14.695800 -0.708198
v -1.201000 14.612600 -1.084098
v -1.000100 14.316900 -1.188698
v -0.662200 14.042000 -1.300098
v 1.620800 14.648100 -1.155498
v 1.682300 14.732500 -0.783898
v 1.435900 14.347600 -1.251998
v 1.650400 14.932700 -0.461398
v 1.678800 15.565200 -0.290197
v 1.476300 15.915600 0.051003
v 1.433200 16.183599 -1.359097
v 1.559800 15.770200 -1.578697
v 1.648400 15.855600 -1.277997
v 1.655700 15.080100 -1.399197
v 1.715000 15.145500 -1.029397
v -0.743100 14.599300 -1.863098
v -1.083700 14.979000 -1.667298
v -1.192700 15.474400 -1.529097
v -1.287200 15.100700 -0.922098
v 1.189700 14.623600 -1.901898
v 1.478400 14.952700 -1.741498
v 1.313300 15.386600 -2.007597
v -0.241400 16.700399 -1.349397
v 0.184200 16.740400 -1.350197
v -0.402400 16.481800 -1.686797
v 0.174000 16.505501 -1.854397
v -0.414700 16.089600 -2.126497
v 0.169100 16.100100 -2.240997
v -0.434800 15.573700 -2.263197
v 0.172500 15.505500 -2.397897
v -0.661200 14.980700 -2.146498
v 0.184200 14.740000 -2.320198
v -0.286200 14.315500 -1.952298
v 0.555100 16.690800 -1.461597
v 0.683000 16.465000 -1.824897
v 0.743200 16.068100 -2.163097
v 0.971800 15.633800 -2.210997
v 1.031100 15.002000 -2.190498
v 0.684000 14.342300 -1.989798
v -0.968400 15.228300 -1.917197
v -1.177600 16.322901 -0.421797
v -1.100900 16.284201 -0.785497
v -1.324800 15.749900 -0.754997
v -1.462300 15.861800 -0.268097
v -1.460000 14.967300 -0.570798
v -1.581800 15.065800 -0.084798
v -1.288100 14.311100 0.173102
v -1.097400 15.153000 0.259402
v -1.040900 15.542400 0.278803
v -1.100900 15.866300 0.094703
v -0.953200 16.306200 -0.112797
v -0.144400 16.811001 -0.257297
v -0.429500 16.797701 -0.325397
v -0.729600 16.486601 0.138303
v -0.286200 16.548000 0.264703
v -0.824200 16.086800 0.504203
v -0.324900 16.266100 0.514503
v -0.690400 15.583100 0.831803
v -0.358900 15.766300 0.762803
v -0.360100 15.032800 1.025903
v -0.923600 15.369400 0.503202
v 0.211500 16.905600 -0.220197
v 0.231200 16.717600 0.445103
v 0.240400 16.473400 0.682103
v 0.254700 15.997800 1.003503
v -0.241700 15.388900 0.997802
v 0.268000 15.514000 1.277902
v 0.282000 14.698100 1.421702
v 0.765400 15.401600 0.971602
v 0.860600 15.781700 0.731103
v 0.801300 16.280300 0.485203
v 0.742500 16.560900 0.238003
v 0.501900 16.841801 -0.274197
v 0.501400 16.952101 -0.600597
v 1.045200 16.682800 -0.121997
v 0.697500 16.898300 -0.604997
v 1.227800 16.533300 -0.320997
v 1.360000 16.591000 -0.565997
v 1.395000 16.335800 -0.173797
v 1.602400 16.357901 -0.493997
v 1.538300 15.838600 0.100903
v 1.933800 15.892000 -0.355897
v 1.596700 15.543800 0.171703
v 2.061700 15.114000 -0.182298
v 1.643600 15.187500 0.188902
v 1.794300 14.349900 0.093002
v 1.296600 16.483601 -0.862497
v 1.463600 16.277599 -0.864597
v 1.724500 15.788300 -0.834197
v 1.834400 15.008700 -0.656498
v 1.180200 16.510599 0.088603
v 1.303700 16.113600 0.448903
v 1.199900 15.606900 0.782703
v 0.894000 15.048600 0.993302
v 1.411300 15.331600 0.440302
v 1.558800 15.587300 0.202803
v -0.831700 16.151899 0.170103
v -1.125232 16.068800 -0.595997
v 1.733000 15.363400 -0.802697
v -0.868300 15.508400 -2.043197
v 1.367300 16.401400 -1.021297
v 1.061100 16.635000 -0.641697
v 1.657600 15.778000 -0.491497
v 1.646700 15.867000 -0.934697
v -1.102400 16.255199 0.622903
v 1.157712 16.230761 -1.767789
v 1.318882 15.792284 -1.942753
v 1.042353 16.531332 -1.412681
v -1.136177 16.079201 -1.534247
v -1.184555 16.074001 -1.122789
v -0.876355 16.084400 -1.888039
v -1.275837 15.536249 -0.891297
v -0.793478 16.436594 -1.404793
v 0.163633 16.819527 -0.982437
v -0.304802 16.728439 -0.966509
v 0.599164 16.758032 -1.120486
v -0.780886 16.500359 -1.000690
v 0.199224 16.824287 -0.659024
v 0.692490 16.788309 -0.845928
v -0.327963 16.761606 -0.613321
v -0.803042 16.468166 -0.552289
v 0.362822 16.782337 -0.198597
v 0.856088 16.746359 -0.385501
v -0.164365 16.719656 -0.152894
v -0.639445 16.426216 -0.091862
vt 0.859400 0.639300
vt 0.882200 0.896500
vt 0.993400 0.768700
vt 0.264500 0.400600
vt 0.288200 0.433000
vt 0.253600 0.401900
vt 0.221800 0.255900
vt 0.184200 0.276500
vt 0.178200 0.144500
vt 0.133500 0.207200
vt 0.710200 0.166500
vt 0.732100 0.049800
vt 0.808400 0.096700
vt 0.772400 0.232500
vt 0.846300 0.169900
vt 0.812400 0.316700
vt 0.851600 0.275500
vt 0.233200 0.096700
vt 0.309500 0.049800
vt 0.331700 0.167000
vt 0.271500 0.235600
vt 0.306100 0.288500
vt 0.587300 0.523500
vt 0.520800 0.523500
vt 0.631300 0.475400
vt 0.520800 0.481000
vt 0.618600 0.391300
vt 0.520800 0.391300
vt 0.616300 0.319000
vt 0.520800 0.300900
vt 0.682900 0.242100
vt 0.520800 0.186400
vt 0.653700 0.132900
vt 0.442400 0.525900
vt 0.435300 0.480200
vt 0.410900 0.414100
vt 0.353600 0.326300
vt 0.354200 0.244600
vt 0.387900 0.132900
vt 0.743400 0.276100
vt 0.869400 0.484700
vt 0.744000 0.479500
vt 0.806500 0.432900
vt 0.172800 0.332600
vt 0.114400 0.299100
vt 0.927200 0.299100
vt 0.879600 0.388400
vt 0.908100 0.207200
vt 0.734500 0.310500
vt 0.282100 0.467600
vt 0.345000 0.518200
vt 0.188700 0.419300
vt 0.240600 0.408500
vt 0.137200 0.427000
vt 0.522600 0.908400
vt 0.464300 0.971500
vt 0.408100 0.991200
vt 0.357275 0.299293
vt 0.283316 0.339701
vt 0.306976 0.323034
vt 0.246552 0.387075
vt 0.294197 0.376711
vt 0.248986 0.432251
vt 0.388817 0.311996
vt 0.257966 0.489094
vt 0.311789 0.442345
vt 0.393393 0.375203
vt 0.657223 0.313515
vt 0.646122 0.286662
vt 0.729008 0.313605
vt 0.760204 0.347081
vt 0.782473 0.375222
vt 0.810947 0.395497
vt 0.846000 0.352550
vt 0.812236 0.448488
vt 0.791077 0.448925
vt 0.000000 0.000000
vt 0.515000 0.813700
vt 0.755214 0.431427
vt 0.665775 0.393169
vt 0.424451 0.442839
vt 0.630602 0.457555
vt 0.749422 0.491494
vt 0.645510 0.515202
vt 0.528979 0.522337
vt 0.521111 0.461782
vt 0.417412 0.498885
vt 0.789567 0.510877
vt 0.745403 0.546112
vt 0.650135 0.565832
vt 0.522437 0.567615
vt 0.398469 0.540597
vt 0.323246 0.555050
vt 0.702282 0.596165
vt 0.608862 0.619127
vt 0.488009 0.621949
vt 0.371337 0.597007
vt 0.000000 0.000000
vt 0.000000 0.000000
vt 0.982100 0.554500
vt 0.256400 0.763800
vt 0.389000 0.973600
vt 0.365600 0.592500
vt 0.592900 0.496000
vt 0.370500 0.432500
vt 0.515000 0.813700
vt 0.365600 0.592500
vt 0.370500 0.432500
vt 0.592900 0.496000
vt 0.389000 0.973600
vt 0.256400 0.763800
vt 0.859400 0.639300
vt 0.982100 0.554500
vt 0.993400 0.768700
vt 0.152800 0.887200
vt 0.068000 0.887200
vt 0.068000 0.840700
vt 0.152800 0.840700
vt 0.068000 0.691700
vt 0.152800 0.707200
vt 0.152800 0.618700
vt 0.239800 0.691700
vt 0.236300 0.774100
vt 0.236200 0.853800
vt 0.236200 0.918300
vt 0.437200 0.978600
vt 0.302600 0.976200
vt 0.302600 0.908600
vt 0.408000 0.913400
vt 0.302600 0.853800
vt 0.383900 0.728200
vt 0.302600 0.702600
vt 0.302600 0.656700
vt 0.253900 0.711000
vt 0.502600 0.984400
vt 0.502600 0.923500
vt 0.393800 0.841900
vt 0.502600 0.849000
vt 0.502600 0.765600
vt 0.410000 0.703900
vt 0.502600 0.710700
vt 0.502600 0.665700
vt 0.595300 0.703900
vt 0.614800 0.754900
vt 0.606300 0.840700
vt 0.597300 0.887200
vt 0.584800 0.964300
vt 0.667800 0.980000
vt 0.699100 0.928200
vt 0.824100 0.980000
vt 0.771600 0.928200
vt 0.851400 0.928200
vt 0.771600 0.887200
vt 0.851400 0.887200
vt 0.771600 0.821600
vt 0.851400 0.821600
vt 0.771600 0.730200
vt 0.849000 0.697400
vt 0.771600 0.675000
vt 0.846600 0.618600
vt 0.925400 0.928200
vt 0.925400 0.887200
vt 0.925400 0.821600
vt 0.894300 0.661800
vt 0.699100 0.887200
vt 0.695500 0.824100
vt 0.687200 0.735200
vt 0.670600 0.640100
vt 0.754900 0.682300
vt 0.764100 0.737400
vt 0.398870 0.499750
vt 0.627092 0.515817
vt 0.559812 0.526490
vt 0.475942 0.542699
vt 0.406800 0.529771
vt 0.674733 0.536610
vt 0.756120 0.413112
vt 0.767714 0.458876
vt 0.714636 0.492630
vn -0.679100 0.284300 0.676700
vn -0.714800 0.207400 0.667800
vn -0.851000 0.355200 0.386700
vn 0.870900 0.230500 -0.434200
vn 0.764100 0.559800 -0.320600
vn 0.937500 0.291500 -0.189800
vn 0.946900 -0.091900 -0.308100
vn 0.993500 -0.053300 -0.100300
vn 0.915100 -0.272700 -0.297000
vn 0.993700 -0.112000 -0.003900
vn -0.635600 -0.442600 -0.632600
vn -0.641400 -0.589300 -0.491200
vn -0.731800 -0.497000 -0.466300
vn -0.850700 -0.248100 -0.463400
vn -0.929900 -0.250500 -0.269300
vn -0.944400 0.025000 -0.327800
vn -0.997800 -0.059000 -0.031000
vn 0.742700 -0.467200 -0.479700
vn 0.637000 -0.592600 -0.493000
vn 0.631800 -0.404600 -0.661200
vn 0.812200 -0.217800 -0.541200
vn 0.714300 -0.005100 -0.699800
vn -0.231800 0.923400 -0.306000
vn -0.038000 0.949300 -0.312000
vn -0.287800 0.805800 -0.517500
vn -0.033600 0.808800 -0.587200
vn -0.314900 0.496200 -0.809100
vn -0.009400 0.477700 -0.878500
vn -0.320400 0.101200 -0.941900
vn -0.008600 0.070700 -0.997500
vn -0.482400 -0.245500 -0.840900
vn -0.023500 -0.243200 -0.969700
vn -0.346500 -0.437600 -0.829700
vn 0.139000 0.915400 -0.377900
vn 0.237900 0.768700 -0.593700
vn 0.281200 0.464400 -0.839800
vn 0.388300 0.174600 -0.904900
vn 0.449500 -0.202700 -0.870000
vn 0.306400 -0.420900 -0.853800
vn -0.778700 -0.114000 -0.617000
vn -0.503900 -0.816500 0.281600
vn -0.908800 0.393600 0.138200
vn 0.998100 0.032500 0.053100
vn 0.986900 -0.063600 0.148200
vn -0.979900 -0.074700 0.184700
vn -0.977100 0.105900 0.184500
vn -0.992600 -0.100800 0.067600
vn -0.653400 0.079900 -0.752800
vn 0.721900 0.690300 -0.047600
vn 0.533700 0.844900 -0.036600
vn 0.970400 0.228700 0.077200
vn 0.942500 0.333600 0.021500
vn 0.999000 -0.030700 -0.031000
vn -0.119700 -0.981100 0.152300
vn 0.688200 0.292900 -0.663800
vn 0.578800 0.588800 -0.564200
vn 0.478700 0.812500 -0.332600
vn -0.607000 0.456400 -0.650500
vn -0.849900 0.415500 -0.324000
vn -0.994400 0.105300 -0.012800
vn -0.903500 0.426800 -0.038200
vn -0.534800 0.797700 -0.278800
vn -0.595000 0.802300 -0.047500
vn -0.309600 0.946500 -0.090900
vn -0.043700 0.992300 -0.115600
vn 0.226000 0.961200 -0.157800
vn -0.649000 0.743200 0.162500
vn -0.334300 0.939200 0.078700
vn -0.029200 0.999300 0.022900
vn 0.261100 0.962900 -0.068600
vn -0.571900 0.773400 0.273700
vn -0.280200 0.941900 0.185400
vn 0.001900 0.995900 0.090100
vn 0.227000 0.973900 0.008100
vn -0.824100 0.209200 0.526400
vn -0.965800 -0.070200 0.249800
vn -0.970800 -0.089100 0.222600
vn 0.922300 0.033500 0.385100
vn 0.979600 -0.078900 0.185000
vn 0.844600 0.293600 0.447600
vn 0.871500 0.274300 0.406500
vn 0.976100 0.152200 0.155400
vn 0.664500 0.381200 0.642800
vn -0.856800 0.500700 0.123000
vn -0.902300 0.365100 -0.229100
vn -0.922200 0.248600 -0.296300
vn -0.907600 0.375100 0.188700
vn -0.968100 -0.100400 -0.229700
vn -0.953600 -0.037900 0.298700
vn -0.860400 -0.170700 0.480200
vn -0.584100 0.046300 0.810300
vn -0.764100 0.157800 0.625500
vn -0.762600 0.339800 0.550400
vn -0.762000 0.480500 0.434200
vn -0.235600 0.883800 0.404200
vn -0.154800 0.863800 0.479400
vn -0.469500 0.717500 0.514600
vn -0.323600 0.778300 0.538100
vn -0.596100 0.455300 0.661400
vn -0.276600 0.450800 0.848700
vn -0.505600 0.199300 0.839400
vn -0.432000 0.058200 0.900000
vn -0.819200 0.012200 0.573400
vn -0.036200 0.953000 0.300700
vn -0.001400 0.843100 0.537800
vn -0.305000 0.531100 0.790500
vn 0.005300 0.627100 0.778900
vn -0.001700 0.512700 0.858600
vn -0.492500 0.300800 0.816600
vn 0.011600 0.332300 0.943100
vn 0.023400 0.173900 0.984500
vn 0.548500 0.279000 0.788300
vn 0.315700 0.435200 0.843200
vn 0.359500 0.581900 0.729500
vn 0.337000 0.776500 0.532400
vn 0.230000 0.919600 0.318500
vn 0.221600 0.935600 0.274700
vn 0.448000 0.861500 0.238900
vn 0.346100 0.927700 0.139600
vn 0.562200 0.787100 0.253900
vn 0.571200 0.820800 -0.006300
vn 0.724700 0.589800 0.356300
vn 0.775800 0.629800 0.038200
vn 0.796900 0.361500 0.484100
vn 0.915900 0.388400 0.101800
vn 0.706000 0.233900 0.668500
vn 0.985400 -0.045000 0.163900
vn 0.669900 0.087200 0.737300
vn 0.924900 -0.209200 0.317600
vn 0.601000 0.701700 -0.382700
vn 0.766900 0.509700 -0.390000
vn 0.872700 0.242700 -0.423700
vn 0.908100 -0.136000 -0.396200
vn 0.555700 0.716300 0.422000
vn 0.613700 0.481600 0.625700
vn 0.528200 0.197800 0.825700
vn 0.497400 0.054100 0.865900
vn 0.824300 -0.066300 0.562200
vn 0.862700 0.141100 0.485600
vn -0.064800 0.988600 0.136300
vn -0.580700 0.809800 0.083800
s 1
f 6/1/1 10/2/2 11/3/3
f 25/4/4 24/5/5 26/6/6
f 25/4/4 26/6/6 27/7/7
f 27/7/7 26/6/6 28/8/8
f 27/7/7 28/8/8 18/9/9
f 18/9/9 28/8/8 19/10/10
f 29/11/11 17/12/12 16/13/13
f 29/11/11 16/13/13 30/14/14
f 30/14/14 16/13/13 15/15/15
f 30/14/14 15/15/15 31/16/16
f 31/16/16 15/15/15 32/17/17
f 20/18/18 1/19/19 33/20/20
f 20/18/18 33/20/20 18/9/9
f 18/9/9 33/20/20 34/21/21
f 18/9/9 34/21/21 27/7/7
f 27/7/7 34/21/21 35/22/22
f 27/7/7 35/22/22 25/4/4
f 36/23/23 37/24/24 38/25/25
f 38/25/25 37/24/24 39/26/26
f 38/25/25 39/26/26 40/27/27
f 40/27/27 39/26/26 41/28/28
f 40/27/27 41/28/28 42/29/29
f 42/29/29 41/28/28 43/30/30
f 42/29/29 43/30/30 44/31/31
f 44/31/31 43/30/30 45/32/32
f 44/31/31 45/32/32 46/33/33
f 37/24/24 47/34/34 48/35/35
f 37/24/24 48/35/35 39/26/26
f 39/26/26 48/35/35 49/36/36
f 39/26/26 49/36/36 41/28/28
f 41/28/28 49/36/36 50/37/37
f 41/28/28 50/37/37 43/30/30
f 43/30/30 50/37/37 51/38/38
f 43/30/30 51/38/38 45/32/32
f 45/32/32 51/38/38 52/39/39
f 44/31/31 46/33/33 29/11/11
f 44/31/31 29/11/11 53/40/40
f 53/40/40 29/11/11 30/14/14
f 53/40/40 30/14/14 31/16/16
f 11/41/3 110/42/41 111/43/42
f 112/44/43 21/45/44 19/10/10
f 19/10/10 28/8/8 112/44/43
f 13/46/45 12/47/46 32/17/17
f 32/17/17 14/48/47 13/46/45
f 14/48/47 32/17/17 15/15/15
f 53/40/40 31/16/16 113/49/48
f 113/49/48 44/31/31 53/40/40
f 44/31/31 113/49/48 42/29/29
f 51/38/38 50/37/37 35/22/22
f 35/22/22 33/20/20 51/38/38
f 33/20/20 35/22/22 34/21/21
f 52/39/39 51/38/38 33/20/20
f 114/50/49 115/51/50 116/52/51
f 114/50/49 116/52/51 117/53/52
f 117/53/52 116/52/51 112/44/43
f 117/53/52 112/44/43 26/6/6
f 26/6/6 112/44/43 28/8/8
f 116/52/51 22/54/53 21/45/44
f 21/45/44 112/44/43 116/52/51
f 114/50/49 117/53/52 26/6/6
f 26/6/6 24/5/5 114/50/49
f 111/55/42 110/56/41 118/57/54
f 50/58/37 120/59/55 35/60/22
f 35/60/22 120/59/55 25/61/4
f 25/61/4 120/59/55 119/62/56 24/63/5
f 50/58/37 49/64/36 119/62/56 120/59/55
f 114/65/49 24/63/5 119/62/56 121/66/57
f 48/67/35 121/66/57 119/62/56 49/64/36
f 40/68/27 42/69/29 113/70/48 124/71/58
f 31/72/16 122/73/59 124/71/58 113/70/48
f 32/17/17 12/47/46 125/74/60 31/16/16
f 123/75/61 122/73/59 31/72/16 125/76/60
f 111/43/42 123/77/61 125/74/60 12/78/46
f 123/75/61 126/79/62 122/73/59
f 122/73/59 126/79/62 124/71/58
f 38/80/25 40/68/27 124/71/58 126/79/62
f 48/67/35 47/81/34 121/66/57
f 38/80/25 126/79/62 36/82/23
f 123/75/61 130/83/63 126/79/62
f 126/79/62 130/83/63 128/84/64 36/82/23
f 36/82/23 128/84/64 127/85/65 37/86/24
f 121/66/57 47/81/34 129/87/66
f 37/86/24 127/85/65 129/87/66 47/81/34
f 111/88/42 134/89/67 130/83/63 123/75/61
f 128/84/64 130/83/63 134/89/67 133/90/68
f 127/85/65 128/84/64 133/90/68 131/91/69
f 129/87/66 127/85/65 131/91/69 132/92/70
f 114/65/49 121/66/57 129/87/66 132/92/70
f 114/65/49 132/92/70 115/93/50
f 133/90/68 134/89/67 138/94/71 137/95/72
f 132/92/70 131/91/69 135/96/73 136/97/74
f 131/91/69 133/90/68 137/95/72 135/96/73
f 132/92/70 136/97/74 115/93/50
f 134/98/67 111/43/42 138/99/71
f 6/1/1 11/3/3 7/100/75
f 7/101/75 11/102/3 12/78/46
f 7/101/75 12/78/46 8/103/76
f 8/103/76 12/78/46 13/104/45
f 8/103/76 13/104/45 9/105/77
f 22/106/53 4/107/78 5/108/79
f 5/108/79 21/109/44 22/106/53
f 23/110/80 3/111/81 4/107/82
f 2/112/83 3/113/81 23/114/80
f 12/78/46 11/41/3 111/43/42
f 54/115/84 55/116/85 56/117/86
f 54/115/84 56/117/86 57/118/87
f 57/118/87 56/117/86 58/119/88
f 57/118/87 58/119/88 59/120/89
f 59/120/89 58/119/88 60/121/90
f 59/120/89 60/121/90 61/122/91
f 59/120/89 61/122/91 62/123/92
f 59/120/89 62/123/92 57/118/87
f 57/118/87 62/123/92 63/124/93
f 57/118/87 63/124/93 54/115/84
f 54/115/84 63/124/93 64/125/94
f 65/126/95 66/127/96 67/128/97
f 65/126/95 67/128/97 68/129/98
f 68/129/98 67/128/97 69/130/99
f 72/131/100 71/132/101 73/133/102
f 69/130/99 63/124/93 62/123/92
f 69/130/99 62/123/92 71/132/101
f 71/132/101 62/123/92 74/134/103
f 71/132/101 74/134/103 73/133/102
f 75/135/104 65/126/95 68/129/98
f 75/135/104 68/129/98 76/136/105
f 76/136/105 68/129/98 70/137/106
f 76/136/105 70/137/106 77/138/107
f 77/138/107 70/137/106 72/131/100
f 77/138/107 72/131/100 78/139/108
f 78/139/108 72/131/100 79/140/109
f 78/139/108 79/140/109 80/141/110
f 80/141/110 79/140/109 81/142/111
f 80/141/110 81/142/111 82/143/112
f 80/141/110 82/143/112 83/144/113
f 80/141/110 83/144/113 78/139/108
f 78/139/108 83/144/113 84/145/114
f 78/139/108 84/145/114 77/138/107
f 77/138/107 84/145/114 85/146/115
f 77/138/107 85/146/115 76/136/105
f 76/136/105 85/146/115 86/147/116
f 76/136/105 86/147/116 75/135/104
f 87/148/117 86/147/116 88/149/118
f 87/148/117 88/149/118 89/150/119
f 89/150/119 88/149/118 90/151/120
f 89/150/119 90/151/120 91/152/121
f 91/152/121 90/151/120 92/153/122
f 91/152/121 92/153/122 93/154/123
f 93/154/123 92/153/122 94/155/124
f 93/154/123 94/155/124 95/156/125
f 95/156/125 94/155/124 96/157/126
f 95/156/125 96/157/126 97/158/127
f 97/158/127 96/157/126 98/159/128
f 97/158/127 98/159/128 99/160/129
f 100/161/130 91/152/121 101/162/131
f 101/162/131 91/152/121 93/154/123
f 101/162/131 93/154/123 102/163/132
f 102/163/132 93/154/123 95/156/125
f 102/163/132 95/156/125 103/164/133
f 103/164/133 95/156/125 97/158/127
f 103/164/133 97/158/127 99/160/129
f 88/149/118 86/147/116 85/146/115
f 88/149/118 85/146/115 104/165/134
f 104/165/134 85/146/115 84/145/114
f 104/165/134 84/145/114 105/166/135
f 106/167/136 83/144/113 107/168/137
f 106/167/136 107/168/137 108/169/138
f 90/151/120 88/149/118 104/165/134
f 90/151/120 104/165/134 92/153/122
f 92/153/122 104/165/134 105/166/135
f 92/153/122 105/166/135 94/155/124
f 69/130/99 67/128/97 64/125/94
f 64/125/94 63/124/93 69/130/99
f 109/170/139 105/166/135 106/167/136
f 106/167/136 108/169/138 109/170/139
f 72/131/100 70/137/106 68/129/98 69/130/99 71/132/101
f 105/166/135 84/145/114 83/144/113 106/167/136
f 105/166/135 109/170/139 94/155/124
f 91/152/121 100/161/130 89/150/119
f 87/171/140 66/172/140 65/173/140 75/174/140 86/175/140
f 67/176/141 66/172/141 55/177/141 54/178/141 64/179/141
