# Blender v2.77 (sub 0) OBJ File: ''
# www.blender.org
o model459.003
v 1.099600 14.064200 -1.345898
v 0.686200 13.835900 -1.374598
v 0.712800 13.489200 -1.941598
v 1.208300 13.826700 -1.955198
v 1.385000 13.463300 -2.744198
v 1.253200 14.188200 -2.391398
v -1.220800 15.598100 -0.253497
v -0.662200 14.042000 -1.300098
v -0.245200 13.824100 -1.350398
v 0.220000 13.743500 -1.423798
v 1.362700 16.009501 -1.758097
v 1.129900 16.357300 -1.900897
v 1.433200 16.183599 -1.359097
v 1.559800 15.770200 -1.578697
v -0.743100 14.599300 -1.863098
v -1.192700 15.474400 -1.529097
v -1.287200 15.100700 -0.922098
v 1.189700 14.623600 -1.901898
v 1.313300 15.386600 -2.007597
v -0.241400 16.700399 -1.349397
v -0.231000 16.898199 -0.979597
v 0.184200 16.740400 -1.350197
v -0.402400 16.481800 -1.686797
v -0.414700 16.089600 -2.126497
v -0.434800 15.573700 -2.263197
v 0.184200 14.740000 -2.320198
v -0.286200 14.315500 -1.952298
v 0.555100 16.690800 -1.461597
v 0.683000 16.465000 -1.824897
v 0.743200 16.068100 -2.163097
v 0.971800 15.633800 -2.210997
v 0.684000 14.342300 -1.989798
v 0.697500 16.898300 -0.604997
v 1.360000 16.591000 -0.565997
v 1.296600 16.483601 -0.862497
v -1.031100 16.068800 -0.595997
v -1.019900 16.241100 -1.157897
v -0.587800 16.573400 -1.133397
v -0.868300 15.508400 -2.043197
v 0.208100 13.915100 -1.800098
v 0.534600 13.985900 -1.752398
v -0.117300 13.977900 -1.735798
v 1.367300 16.401400 -1.021297
v 1.061100 16.635000 -0.641697
v -1.675500 16.376200 -0.509597
v -1.826800 15.825600 0.000503
v -1.864100 16.640400 -0.777697
v -3.435100 16.701799 -0.410897
v -1.943300 16.427000 -1.255497
v -2.067800 15.956100 -1.583497
v -0.838400 16.133900 -2.699597
v -0.829200 16.814800 -1.804997
v -1.324400 16.664301 -1.386397
v -1.565600 16.012899 -1.901797
v -0.292500 13.476500 -1.915398
v -0.386700 13.920600 -2.414398
v -0.873000 14.161400 -2.336298
v 0.769700 13.935100 -2.444398
v -0.897300 17.958401 -0.538697
v -0.505600 17.536699 -0.417397
v -0.551100 17.688101 0.041103
v -0.411300 17.311100 -0.310597
v -0.333900 17.492701 0.867303
v -0.099900 16.741899 -0.164397
v -1.102400 16.255199 0.622903
v -2.078300 16.934099 0.068203
v -1.540400 17.506399 -0.303297
v -1.395500 17.691401 -0.464397
v 1.588000 15.767800 -2.383197
v 1.314700 16.183001 -2.394797
v 0.419100 17.712299 -1.377497
v 0.049600 17.681000 -1.167097
v 0.756000 17.262400 -1.147597
v 0.736000 17.681601 -1.077697
v 0.244500 18.944201 -0.913197
v 0.461800 18.929300 -0.658897
v 0.004400 19.758900 -0.365697
v 0.054900 19.498699 -0.285797
v -1.568500 18.976400 1.073603
v -1.883900 18.722401 1.175603
v -2.061600 18.541201 1.340403
v -2.412700 17.735800 1.186603
v -1.510100 16.620800 1.292503
v -1.966400 18.848200 2.132803
v -2.058800 19.258301 2.392203
v -2.274800 19.043501 2.989403
v -2.122800 18.224300 2.752603
v -1.882700 17.432301 2.191603
v 1.351200 17.048201 -0.869197
v 0.811100 17.377199 -1.212397
v 1.620100 17.570400 -1.131297
v 1.092800 17.825300 -1.342797
v 1.917600 18.180599 -1.435497
v 1.375200 17.552299 -2.042397
v -1.622700 16.987600 -1.685997
v -1.300100 17.190500 -2.218997
v -1.387200 16.756300 -2.929897
v -1.847200 16.549700 -2.315397
v -2.175100 15.524700 -0.806098
v 0.194000 13.567900 -2.507298
v -0.241700 13.990900 -2.739098
v 0.174200 14.397900 -2.867498
v 0.615600 14.004800 -2.759698
v 1.536600 16.192900 -2.050697
v 1.856500 16.512699 -2.597197
v -0.068300 18.841700 -0.746797
v -0.583800 18.601299 -0.012197
v 0.075200 17.630699 0.722003
v -0.015300 18.808901 0.654803
v -0.114100 20.072599 -0.007597
v -0.050300 19.478800 0.362503
v 1.723700 16.785500 -1.497097
v 0.983800 16.823200 -2.162597
v 1.922600 17.462000 -1.546297
v 1.028200 17.588200 -0.198197
v 0.768300 18.844900 0.086803
v 0.234200 16.474300 0.476703
v 0.717200 16.818501 -0.367497
v -1.364500 18.803200 1.414303
v -1.279300 18.538200 1.484703
v -0.845400 18.184500 1.671403
v -0.796300 13.801400 -1.903198
v -1.004600 13.433200 -2.682198
v -2.127900 17.482300 -2.916097
v 0.163000 13.751801 -3.611098
vt 0.690800 0.435100
vt 0.703000 0.480700
vt 0.606800 0.466700
vt 0.618400 0.401500
vt 0.534300 0.376400
vt 0.608500 0.344600
vt 0.291000 0.404200
vt 0.362000 0.456800
vt 0.288200 0.433000
vt 0.264500 0.400600
vt 0.306100 0.288500
vt 0.587300 0.523500
vt 0.574300 0.572300
vt 0.520800 0.523500
vt 0.631300 0.475400
vt 0.746900 0.437600
vt 0.684600 0.504400
vt 0.520800 0.042800
vt 0.449500 0.099300
vt 0.452300 0.054400
vt 0.520800 0.012800
vt 0.422900 0.027800
vt 0.589300 0.054400
vt 0.591700 0.094200
vt 0.618700 0.027800
vt 0.928000 0.184800
vt 0.972400 0.196300
vt 0.901400 0.211500
vt 0.877800 0.184400
vt 0.887700 0.233900
vt 0.716700 0.235900
vt 0.887500 0.261800
vt 0.877600 0.306400
vt 0.980300 0.245900
vt 0.979300 0.306200
vt 0.459700 0.332500
vt 0.493500 0.291000
vt 0.417600 0.291000
vt 0.455100 0.371900
vt 0.414300 0.375700
vt 0.416500 0.454500
vt 0.375000 0.439000
vt 0.465900 0.240100
vt 0.410500 0.212300
vt 0.459300 0.196400
vt 0.368400 0.144800
vt 0.417900 0.143100
vt 0.685800 0.241900
vt 0.703000 0.201600
vt 0.634200 0.218300
vt 0.684000 0.297300
vt 0.634500 0.269800
vt 0.672000 0.335300
vt 0.611100 0.331100
vt 0.634200 0.218300
vt 0.703000 0.201600
vt 0.685800 0.241900
vt 0.634500 0.269800
vt 0.684000 0.297300
vt 0.611100 0.331100
vt 0.672000 0.335300
vt 0.506200 0.706600
vt 0.541000 0.752900
vt 0.389900 0.752900
vt 0.419500 0.705900
vt 0.366300 0.698000
vt 0.422700 0.679300
vt 0.305500 0.648000
vt 0.441600 0.648000
vt 0.370100 0.514900
vt 0.522600 0.908400
vt 0.408100 0.991200
vt 0.472100 0.904200
vt 0.403100 0.904200
vt 0.526500 0.835300
vt 0.396100 0.835300
vt 0.529500 0.810200
vt 0.379800 0.805100
vt 0.540400 0.766100
vt 0.385900 0.767400
vt 0.531500 0.461500
vt 0.580200 0.448700
vt 0.585200 0.487200
vt 0.529100 0.508300
vt 0.583800 0.527900
vt 0.559700 0.557100
vt 0.877100 0.732300
vt 0.988800 0.732300
vt 0.976200 0.770200
vt 0.878200 0.771100
vt 0.950100 0.818400
vt 0.862900 0.847700
vt 0.921000 0.672100
vt 0.989700 0.704300
vt 0.884700 0.714000
vt 0.876500 0.681100
vt 0.733800 0.714000
vt 0.732000 0.668400
vt 0.642400 0.691000
vt 0.665300 0.673100
vt 0.208200 0.768300
vt 0.195900 0.805100
vt 0.194200 0.835300
vt 0.267000 0.904200
vt 0.333600 0.991200
vt 0.111400 0.855100
vt 0.065600 0.805100
vt 0.044600 0.904200
vt 0.112100 0.948300
vt 0.213900 0.981800
vt 0.105000 0.505400
vt 0.139500 0.562900
vt 0.186300 0.536200
vt 0.120200 0.496400
vt 0.234400 0.484300
vt 0.156600 0.474600
vt 0.282700 0.407500
vt 0.176400 0.407500
vt 0.332000 0.414200
vt 0.354200 0.357300
vt 0.354900 0.291000
vt 0.345800 0.233400
vt 0.324600 0.164000
vt 0.951300 0.381500
vt 0.942000 0.439900
vt 0.878400 0.430500
vt 0.860300 0.374800
vt 0.720400 0.370400
vt 0.876700 0.317800
vt 0.132400 0.129800
vt 0.075500 0.080300
vt 0.144900 0.032900
vt 0.181500 0.111300
vt 0.221200 0.030300
vt 0.221100 0.098800
vt 0.295400 0.032000
vt 0.260700 0.110700
vt 0.367000 0.079500
vt 0.310300 0.129200
vt 0.572300 0.613100
vt 0.575000 0.683300
vt 0.531500 0.672100
vt 0.531500 0.611500
vt 0.453800 0.611200
vt 0.559000 0.569600
vt 0.733900 0.732300
vt 0.733800 0.748900
vt 0.745700 0.840200
vt 0.804600 0.956400
vt 0.701600 0.914100
vt 0.649500 0.752700
vt 0.662200 0.772500
vt 0.596500 0.805000
vt 0.641500 0.872000
vt 0.167500 0.275300
vt 0.122700 0.245400
vt 0.096700 0.273800
vt 0.124400 0.328400
vt 0.059600 0.311000
vt 0.096800 0.407500
vt 0.043500 0.371500
vt 0.032400 0.407500
vt 0.195100 0.348700
vt 0.214300 0.315300
vt 0.989700 0.604700
vt 0.854100 0.560600
vt 0.704400 0.599200
vt 0.588900 0.661600
vt 0.688000 0.557200
vt 0.798400 0.482300
vt 0.919400 0.455200
vt 0.937800 0.555000
vt 0.207200 0.753000
vt 0.185100 0.717600
vt 0.072100 0.717500
vt 0.190500 0.682500
vt 0.099100 0.693000
vt 0.206100 0.648000
vt 0.031600 0.648000
vt 0.111200 0.564900
vt 0.703000 0.480700
vt 0.690800 0.435100
vt 0.618400 0.401500
vt 0.606800 0.466700
vt 0.534300 0.376400
vt 0.672000 0.355000
vt 0.672000 0.355000
vt 0.608500 0.344600
vt 0.929500 0.907900
vt 0.927900 0.982900
vt 0.880300 0.868100
vt 0.534300 0.279000
vt 0.534300 0.279000
vt 0.460000 0.508900
vt 0.238300 0.291000
vt 0.973300 0.336300
vt 0.221600 0.205000
vt 0.069700 0.493200
vt 0.049600 0.446000
vt 0.622100 0.611400
vt 0.280500 0.492700
vt 0.189800 0.524200
vt 0.925400 0.928200
vt 0.824100 0.980000
vt 0.851400 0.928200
vn 0.787600 -0.490900 0.372400
vn 0.034800 -0.979200 0.200000
vn -0.409300 -0.907200 0.097500
vn 0.858400 -0.396000 0.326100
vn 0.495000 -0.536900 -0.683100
vn 0.593200 0.568200 -0.570300
vn 0.950800 0.307700 -0.035800
vn 0.741600 0.467700 -0.481000
vn 0.963500 -0.070800 -0.258000
vn 0.813900 0.295300 -0.500300
vn 0.723700 -0.548300 -0.419100
vn -0.241800 0.772100 -0.587600
vn -0.000800 0.647500 -0.762000
vn -0.411500 0.257300 -0.874300
vn 0.246400 0.959800 -0.134400
vn -0.394200 0.884700 -0.248900
vn -0.539200 0.497300 -0.679700
vn 0.023500 -0.974900 -0.221400
vn 0.074400 0.429600 -0.899900
vn -0.451800 -0.712100 -0.537400
vn 0.007900 -0.906500 -0.422100
vn 0.345800 -0.675800 -0.651000
vn -0.081400 0.324500 -0.942400
vn -0.050200 -0.984600 0.167500
vn 0.236000 -0.258600 0.936700
vn -0.025600 -0.319800 0.947100
vn -0.478400 0.644200 0.596800
vn -0.023100 -0.151400 0.988200
vn 0.213500 0.968400 0.128800
vn -0.889300 0.390300 0.238200
vn 0.002800 0.748000 -0.663700
vn -0.346700 -0.083600 -0.934200
vn -0.604100 -0.570900 -0.556000
vn 0.760100 0.371500 -0.533200
vn 0.256400 -0.472200 -0.843400
vn 0.260500 -0.166600 -0.951000
vn 0.581700 0.795900 0.167600
vn -0.331500 0.395700 0.856500
vn -0.468100 -0.669100 -0.577200
vn -0.874400 -0.485000 0.014100
vn 0.466900 -0.880300 0.084700
vn 0.656500 0.146300 -0.740000
vn -0.755100 0.576900 -0.311400
vn -0.645900 0.561500 -0.517200
vn -0.661400 0.123600 -0.739700
vn 0.776900 0.528900 -0.341700
vn 0.196500 0.756700 -0.623600
vn -0.033900 0.888800 -0.457100
vn 0.812500 0.573700 -0.103400
vn 0.157000 0.480900 0.862600
vn 0.918700 0.056900 0.390800
vn -0.120100 -0.426200 0.896600
vn -0.065300 -0.859500 0.506900
vn -0.941000 -0.241100 -0.237400
vn -0.756800 0.231400 -0.611300
vn -0.634100 0.324000 -0.702100
vn 0.645100 -0.529100 -0.551200
vn -0.225500 -0.346500 -0.910500
vn -0.440900 0.290900 -0.849100
vn -0.344200 0.271800 -0.898700
vn 0.119700 0.249700 -0.960900
vn -0.559800 0.313200 -0.767200
vn -0.648600 0.152800 -0.745600
vn 0.431000 0.837100 -0.336900
vn 0.824300 0.240300 -0.512700
vn 0.122100 0.473200 -0.872400
vn 0.790800 0.463600 -0.399600
vn -0.208400 0.955400 0.209200
vn 0.017000 0.887400 -0.460700
vn 0.045100 0.927400 -0.371300
vn -0.732800 0.515900 -0.443700
vn -0.831600 0.429300 -0.352200
vn -0.985900 -0.089100 -0.141800
vn -0.141300 -0.864400 0.482600
vn -0.085500 0.876300 0.474100
vn -0.300800 0.541600 0.785000
vn -0.302400 0.612800 0.730100
vn -0.239700 -0.417700 0.876400
vn -0.148000 -0.678900 0.719200
vn 0.747400 0.062400 0.661400
vn 0.399400 0.243600 0.883800
vn -0.725500 0.625300 0.287400
vn 0.388500 0.227400 0.892900
vn -0.620700 0.745600 0.242600
vn 0.551400 0.830100 0.082800
vn -0.020600 0.363600 -0.931300
vn -0.505700 0.493400 0.707700
vn 0.485200 0.874400 0.001800
vn 0.175700 -0.037900 -0.983700
vn -0.878400 -0.466700 -0.103400
vn -0.379000 -0.924000 -0.051100
vn -0.561800 -0.827300 -0.008300
vn 0.029900 -0.985200 0.169000
vn -0.971200 -0.102200 -0.215400
vn -0.015600 0.861500 -0.507600
vn -0.019900 0.818400 -0.574300
vn 0.967900 -0.070800 -0.241200
vn 0.774400 0.226000 0.591000
vn 0.622300 0.571700 -0.534700
vn -0.713300 0.289700 -0.638200
vn -0.988000 0.133600 0.077500
vn -0.142500 -0.159100 0.976900
vn -0.136000 0.215900 0.966900
vn -0.166600 0.984700 -0.050500
vn -0.139400 0.471000 0.871100
vn 0.826600 -0.199300 0.526400
vn 0.929200 -0.339800 -0.145300
vn -0.154600 0.142700 -0.977600
vn 0.982100 -0.124600 -0.141500
vn 0.968900 0.028200 0.245800
vn 0.886600 0.362100 0.287900
vn -0.034000 -0.371700 0.927700
vn 0.696100 -0.410800 0.588800
vn 0.790000 0.590100 0.166600
vn 0.775700 0.587800 0.229900
vn 0.847300 0.286100 0.447400
vn -0.762600 -0.524400 0.378800
vn -0.827200 -0.401000 0.393700
vn -0.516100 -0.549700 -0.656900
vn -0.584200 0.613800 -0.531000
vn -0.024200 -0.272500 -0.961800
vn -0.843200 0.269500 -0.465200
vn 0.406700 0.827700 -0.386800
s 1
f 1/1/1 2/2/2 3/3/3
f 1/1/1 3/3/3 4/4/4
f 4/4/4 3/3/3 5/5/5
f 4/4/4 5/5/5 6/6/6
f 11/7/7 12/8/8 13/9/9
f 11/7/7 13/9/9 14/10/10
f 14/10/10 19/11/11 11/7/7
f 20/12/12 21/13/13 22/14/14
f 23/15/15 37/16/16 38/17/17
f 38/17/17 20/12/12 23/15/15
f 40/18/18 32/19/19 41/20/20
f 41/20/20 10/21/21 40/18/18
f 10/21/21 41/20/20 2/22/2
f 42/23/22 27/24/23 40/18/18
f 40/18/18 9/25/24 42/23/22
f 9/25/24 40/18/18 10/21/21
f 7/26/25 36/27/26 45/28/27
f 7/26/25 45/28/27 46/29/28
f 46/29/28 45/28/27 47/30/29
f 46/29/28 47/30/29 48/31/30
f 48/31/30 47/30/29 49/32/31
f 48/31/30 49/32/31 50/33/32
f 50/33/32 49/32/31 37/34/16
f 50/33/32 37/34/16 16/35/33
f 24/36/34 25/37/35 51/38/36
f 24/36/34 51/38/36 23/39/15
f 23/39/15 51/38/36 52/40/37
f 23/39/15 52/40/37 37/41/16
f 37/41/16 52/40/37 53/42/38
f 51/38/36 25/37/35 39/43/39
f 51/38/36 39/43/39 54/44/40
f 54/44/40 39/43/39 16/45/33
f 54/44/40 16/45/33 53/46/38
f 53/46/38 16/45/33 37/47/16
f 42/48/22 9/49/24 55/50/41
f 42/48/22 55/50/41 27/51/23
f 27/51/23 55/50/41 56/52/42
f 27/51/23 56/52/42 15/53/43
f 15/53/43 56/52/42 57/54/44
f 3/55/3 2/56/2 41/57/20
f 3/55/3 41/57/20 58/58/45
f 58/58/45 41/57/20 32/59/19
f 58/58/45 32/59/19 6/60/6
f 6/60/6 32/59/19 18/61/46
f 21/62/13 20/63/12 59/64/47
f 21/62/13 59/64/47 60/65/48
f 60/65/48 59/64/47 61/66/49
f 60/65/48 61/66/49 62/67/50
f 62/67/50 61/66/49 63/68/51
f 62/67/50 63/68/51 64/69/52
f 64/69/52 63/68/51 65/70/53
f 36/71/26 65/72/53 45/73/27
f 45/73/27 65/72/53 66/74/54
f 45/73/27 66/74/54 37/75/16
f 37/75/16 66/74/54 67/76/55
f 37/75/16 67/76/55 38/77/17
f 38/77/17 67/76/55 68/78/56
f 38/77/17 68/78/56 20/79/12
f 20/79/12 68/78/56 59/80/47
f 69/81/57 19/82/11 31/83/58
f 69/81/57 31/83/58 70/84/59
f 70/84/59 31/83/58 30/85/60
f 70/84/59 30/85/60 12/86/8
f 71/87/61 28/88/62 22/89/14
f 71/87/61 22/89/14 72/90/63
f 72/90/63 22/89/14 21/91/13
f 72/90/63 21/91/13 60/92/48
f 73/93/64 28/94/62 71/95/61
f 73/93/64 71/95/61 74/96/65
f 74/96/65 71/95/61 75/97/66
f 74/96/65 75/97/66 76/98/67
f 76/98/67 75/97/66 77/99/68
f 76/98/67 77/99/68 78/100/69
f 79/101/70 59/80/47 68/78/56
f 79/101/70 68/78/56 80/102/71
f 80/102/71 68/78/56 67/76/55
f 80/102/71 67/76/55 81/103/72
f 81/103/72 67/76/55 66/74/54
f 81/103/72 66/74/54 82/104/73
f 82/104/73 66/74/54 65/72/53
f 82/104/73 65/72/53 83/105/74
f 84/106/75 85/107/76 81/103/72
f 84/106/75 81/103/72 86/108/77
f 86/108/77 81/103/72 82/104/73
f 86/108/77 82/104/73 87/109/78
f 87/109/78 82/104/73 88/110/79
f 73/111/64 44/112/80 89/113/81
f 73/111/64 89/113/81 90/114/82
f 90/114/82 89/113/81 91/115/83
f 90/114/82 91/115/83 92/116/84
f 92/116/84 91/115/83 93/117/85
f 92/116/84 93/117/85 94/118/86
f 95/119/87 53/42/38 52/40/37
f 95/119/87 52/40/37 96/120/88
f 96/120/88 52/40/37 51/38/36
f 96/120/88 51/38/36 97/121/89
f 97/121/89 51/38/36 54/44/40
f 97/121/89 54/44/40 98/122/90
f 98/122/90 54/44/40 53/46/38
f 98/122/90 53/46/38 95/123/87
f 17/124/91 7/125/25 46/126/28
f 17/124/91 46/126/28 99/127/92
f 99/127/92 46/126/28 48/128/30
f 99/127/92 48/128/30 50/129/32
f 100/130/93 40/131/18 27/132/23
f 100/130/93 27/132/23 101/133/94
f 101/133/94 27/132/23 26/134/95
f 101/133/94 26/134/95 102/135/96
f 102/135/96 26/134/95 32/136/19
f 102/135/96 32/136/19 103/137/97
f 103/137/97 32/136/19 40/138/18
f 103/137/97 40/138/18 100/139/93
f 11/140/7 19/141/11 69/142/57
f 11/140/7 69/142/57 104/143/98
f 104/143/98 69/142/57 105/144/99
f 104/143/98 105/144/99 12/145/8
f 75/146/66 71/87/61 72/90/63
f 75/146/66 72/90/63 106/147/100
f 106/147/100 72/90/63 60/92/48
f 106/147/100 60/92/48 107/148/101
f 107/148/101 60/92/48 108/149/102
f 107/148/101 108/149/102 109/150/103
f 77/151/68 75/146/66 106/147/100
f 77/151/68 106/147/100 78/152/69
f 78/152/69 106/147/100 107/148/101
f 78/152/69 107/148/101 110/153/104
f 110/153/104 107/148/101 111/154/105
f 89/155/81 44/156/80 43/157/106
f 89/155/81 43/157/106 112/158/107
f 112/158/107 43/157/106 13/159/9
f 112/158/107 13/159/9 113/160/108
f 113/160/108 13/159/9 12/161/8
f 113/160/108 12/161/8 30/162/60
f 112/158/107 113/160/108 94/118/86
f 112/158/107 94/118/86 114/163/109
f 114/163/109 94/118/86 93/117/85
f 114/163/109 93/117/85 91/164/83
f 44/165/80 73/93/64 74/96/65
f 44/165/80 74/96/65 115/166/110
f 115/166/110 74/96/65 76/98/67
f 115/166/110 76/98/67 116/167/111
f 116/167/111 76/98/67 78/100/69
f 116/167/111 78/100/69 110/168/104
f 116/167/111 109/169/103 108/170/102
f 116/167/111 108/170/102 115/166/110
f 115/166/110 108/170/102 117/171/112
f 115/166/110 117/171/112 118/172/113
f 61/66/49 59/64/47 79/173/70
f 61/66/49 79/173/70 119/174/114
f 119/174/114 79/173/70 85/175/76
f 119/174/114 85/175/76 120/176/115
f 120/176/115 85/175/76 84/177/75
f 120/176/115 84/177/75 121/178/116
f 121/178/116 84/177/75 86/179/77
f 121/178/116 86/179/77 87/180/78
f 9/181/24 8/182/117 122/183/118
f 122/183/118 55/184/41 9/181/24
f 55/184/41 122/183/118 123/185/119
f 18/186/46 1/1/1 4/4/4
f 4/4/4 6/6/6 18/186/46
f 122/183/118 8/182/117 15/187/43
f 15/187/43 57/188/44 122/183/118
f 57/188/44 123/185/119 122/183/118
f 64/189/52 117/190/112 108/149/102
f 108/149/102 62/191/50 64/189/52
f 62/191/50 108/149/102 60/92/48
f 37/34/16 49/32/31 47/30/29
f 47/30/29 45/28/27 37/34/16
f 56/52/42 55/50/41 123/192/119
f 123/192/119 57/54/44 56/52/42
f 5/193/5 3/55/3 58/58/45
f 58/58/45 6/60/6 5/193/5
f 105/194/99 69/81/57 70/84/59
f 70/84/59 12/86/8 105/194/99
f 85/107/76 79/101/70 80/102/71
f 80/102/71 81/103/72 85/107/76
f 82/104/73 83/105/74 88/110/79
f 124/195/120 95/119/87 96/120/88
f 96/120/88 97/121/89 124/195/120
f 124/195/120 97/121/89 98/122/90
f 98/122/90 95/123/87 124/195/120
f 50/129/32 16/196/33 17/124/91
f 17/124/91 99/127/92 50/129/32
f 125/197/121 100/130/93 101/133/94
f 101/133/94 102/135/96 125/197/121
f 125/197/121 102/135/96 103/137/97
f 103/137/97 100/139/93 125/197/121
f 11/140/7 104/143/98 12/145/8
f 109/150/103 111/154/105 107/148/101
f 90/114/82 92/116/84 94/118/86
f 94/118/86 113/160/108 90/114/82
f 28/198/62 73/111/64 90/114/82
f 90/114/82 113/160/108 28/198/62
f 29/199/122 28/198/62 113/160/108
f 113/160/108 30/162/60 29/199/122
f 114/163/109 91/164/83 89/155/81
f 89/155/81 112/158/107 114/163/109
f 116/167/111 110/168/104 111/200/105
f 111/200/105 109/169/103 116/167/111
f 115/166/110 118/172/113 44/165/80
f 61/66/49 119/174/114 120/176/115
f 120/176/115 121/178/116 61/66/49
f 63/68/51 61/66/49 121/178/116
f 121/178/116 65/70/53 63/68/51
f 65/70/53 121/178/116 83/201/74
f 88/202/79 83/201/74 121/178/116
f 121/178/116 87/180/78 88/202/79
f 35/203/123 33/204/123 34/205/123
